<svg version="1.1" id="AmazeToken_white_svg__图层_1" xmlns="http://www.w3.org/2000/svg" x="0" y="0" viewBox="0 0 120 24" style="enable-background:new 0 0 120 24" xml:space="preserve">
  <style>
    .AmazeToken_white_svg__st0{fill:#fff}
  </style>
  <path class="AmazeToken_white_svg__st0" d="m14.3 4.2-.9 2.2H11l-.9 2.3-.9 2.2-.9 2.2-.9 2.2-.9 2.3-.9 2.2H8L7.1 22H2.3l.9-2.2.9-2.2.9-2.3.9-2.2.9-2.2.9-2.2.9-2.3.9-2.2zM20 2l-.9 2.2-.9 2.2-.9 2.3-.9 2.2-.9 2.2-.9 2.2-.9 2.3-.9 2.2H8l.9-2.2h2.4l.9-2.3.9-2.2.9-2.2.9-2.2.9-2.3.9-2.2h-2.4l.9-2.2zm7.7 15.2 4.6-11.3h1.9l4.6 11.3h-2l-1.1-2.8h-4.9l-1.1 2.8h-2zm3.8-4.5H35l-1.7-4.3-1.8 4.3zm7.9 4.5V8.6h1.5v1.2c.5-.8 1.7-1.5 3-1.5 1.2 0 2.2.6 2.6 1.6.5-.9 1.6-1.6 3-1.6 1.8 0 2.9 1.3 2.9 3.1v5.7h-1.9v-5.6c0-1-.6-1.6-1.5-1.6-1.3 0-2.1.9-2.1 2v5.2H45v-5.6c0-1-.6-1.6-1.5-1.6-1.3 0-2.1.9-2.1 2v5.2l-2 .1zm41.7.1v-11h-4.2v-.6H86v.7h-4.2v11h-.7z"/>
  <path class="AmazeToken_white_svg__st0" d="M83.9 12.8c0-2.9 1.9-4.5 4.1-4.5s4.1 1.5 4.1 4.5-1.9 4.6-4.1 4.6-4.1-1.5-4.1-4.6zm7.5 0c0-2.3-1.3-3.8-3.3-3.8s-3.3 1.5-3.3 3.8c0 2.4 1.3 3.9 3.3 3.9s3.3-1.4 3.3-3.9zm1.9 4.5V4.8h.7v9l5.2-5.3h1L97 11.8l3.6 5.6h-.9l-3.3-5.1-2.4 2.5v2.6l-.7-.1z"/>
  <path class="AmazeToken_white_svg__st0" d="M100 13c0-3 1.9-4.6 4-4.6 2.2 0 3.8 1.6 3.8 4.2v.1h-7.1c0 2.6 1.3 4 3.4 4 1.7 0 2.6-1 2.9-2.2h.7c-.4 1.8-1.8 2.9-3.6 2.9-2.3 0-4.1-1.8-4.1-4.4zm7.1-.9c-.2-1.6-1.2-3-3.1-3-1.7 0-2.9 1.2-3.2 3h6.3zm1.8 5.2V8.5h.6l.1 1.9c.6-1.2 1.8-2 3.3-2 2 0 3.1 1.2 3.1 3.2v5.8h-.7v-5.7c0-1.6-.8-2.6-2.4-2.6-1.8 0-3.1 1.3-3.1 3.1v5.1h-.9zm-55.8-2.5c0-2 2-2.4 3.7-2.6 1.3-.2 2.2-.2 2.2-.9 0-.8-.7-1.4-1.8-1.4s-1.9.6-2.1 1.5h-1.9c.2-1.8 1.8-3.1 4-3.1 2.3 0 3.6 1.3 3.6 3.1v3.9c0 .2.1.4.4.4h.5v1.5h-.9c-.9 0-1.4-.4-1.5-1 0-.1-.1-.2-.1-.3-.5.9-1.4 1.5-2.9 1.5-1.9-.1-3.2-1-3.2-2.6zm5.9-.9v-1.2c-.3.5-1.1.6-2.1.7-1.1.1-2 .3-2 1.2 0 .7.6 1.2 1.7 1.2 1.4 0 2.4-.7 2.4-1.9zm3.1 3.3v-1.7l4.6-5.1h-4.4V8.6h6.6v1.7l-4.6 5.1H69v1.7l-6.9.1zm7.2-4.3c0-2.8 1.9-4.6 4.2-4.6 2.4 0 4 1.7 4.1 4.5v.5h-6.4c.1 1.5 1.1 2.5 2.5 2.5 1 0 1.7-.5 2-1.3h1.9c-.4 1.8-1.9 3-3.9 3-2.6-.1-4.4-2-4.4-4.6zm6.4-1c-.2-1.2-1-2-2.1-2s-2 .7-2.3 2h4.4z"/>
</svg>
