<svg version="1.1" id="icon-white_svg__图层_1" xmlns="http://www.w3.org/2000/svg" x="0" y="0" viewBox="0 0 30 30" style="enable-background:new 0 0 30 30" xml:space="preserve">
  <style>
    .icon-white_svg__st0{fill:#fff}
  </style>
  <path class="icon-white_svg__st0" d="m18.9 5.3-1.1 2.8h-3l-1.1 2.7-1.1 2.8-1.1 2.8-1.2 2.7-1.1 2.8-1.1 2.8h3L10 27.4H4l1.1-2.7 1.1-2.8 1.2-2.8 1.1-2.7 1.1-2.8 1.1-2.8 1.1-2.7L13 5.3z"/>
  <path class="icon-white_svg__st0" d="m26 2.6-1.1 2.7-1.1 2.8-1.2 2.7-1.1 2.8-1.1 2.8-1.1 2.7-1.1 2.8-1.2 2.8h-5.9l1.1-2.8h3l1.1-2.8 1.1-2.7 1.1-2.8 1.2-2.8 1.1-2.7 1.1-2.8h-3L20 2.6z"/>
</svg>
